<svg width="201" height="200" viewBox="0 0 201 200" fill="none" xmlns="http://www.w3.org/2000/svg">
<path d="M189.215 0.195709L172.578 180.396L100.499 199.804L28.4179 180.396L11.7847 0.195709H189.215ZM155.691 36.8367H100.434H44.1976L46.887 58.5977H100.434H103.442L100.434 59.8496L48.844 81.3363L50.555 102.607L100.434 102.769L127.167 102.854L125.456 131.215L100.434 138.26V138.238L100.228 138.295L76.0628 132.195L74.5964 114.589H74.5163H52.1015H52.0226L54.9565 148.576L100.434 162.025V162.001L100.516 162.025L145.75 148.821L151.618 81.3363H100.434H100.308L100.434 81.2816L153.493 58.5977L155.691 36.8367Z" fill="#34495E"/>
</svg>
