<svg width="200" height="200" viewBox="0 0 200 200" fill="none" xmlns="http://www.w3.org/2000/svg">
<path d="M100.002 119.884C109.864 119.884 117.858 110.899 117.858 99.8145C117.858 88.7303 109.864 79.7448 100.002 79.7448C90.14 79.7448 82.1455 88.7303 82.1455 99.8145C82.1455 110.899 90.14 119.884 100.002 119.884Z" fill="#34495E"/>
<path d="M100 63.799C123.075 63.799 144.995 67.4555 161.659 73.9036C180.167 81.0648 191.456 91.6524 191.456 99.8103C191.456 108.5 179.264 119.781 159.467 127.154C143.707 133.023 122.62 136.222 100 136.222C76.2369 136.222 54.9125 133.085 39.335 127.101C29.5827 123.354 21.529 118.485 16.0087 113.172C11.0483 108.397 8.54394 103.657 8.54394 99.8103C8.54394 91.625 19.4013 81.1844 37.5099 74.0883C54.1812 67.5558 76.6375 63.799 100 63.799ZM100 54.196C75.7299 54.196 52.333 58.1102 34.6972 65.0205C13.5226 73.3181 0 86.3217 0 99.8103C0 113.742 14.5168 127.715 36.5715 136.187C53.1493 142.556 75.3703 145.825 100 145.825C123.473 145.825 145.447 142.491 162.154 136.269C185.082 127.731 200 113.928 200 99.8103C200 86.2729 186.041 73.1816 164.44 64.8235C146.826 58.0078 123.975 54.196 100 54.196ZM72.0906 81.9203C83.618 59.4537 97.3868 39.9381 110.682 26.9339C125.447 12.4915 139.247 6.78881 145.535 10.8641C152.232 15.2051 154.836 32.7123 150.628 55.6699C147.278 73.9472 139.21 96.0763 127.909 118.101C116.038 141.238 102.968 160.433 90.5727 172.61C82.8131 180.234 75.0371 185.643 68.1841 188.364C62.0261 190.808 57.1213 190.878 54.1567 188.957C47.8481 184.867 45.2253 169.08 48.8027 147.904C52.0961 128.409 60.419 104.668 72.0906 81.9203ZM64.6892 77.1229C52.5641 100.754 43.8926 125.49 40.4088 146.113C36.2257 170.874 39.4923 190.537 49.8884 197.275C60.6262 204.235 78.6476 197.081 96.1957 179.841C109.386 166.881 123.006 146.879 135.311 122.898C147.037 100.043 155.445 76.9833 158.997 57.6076C163.87 31.0185 160.684 9.59772 149.803 2.54521C139.369 -4.21744 122.306 2.83365 105.073 19.6899C91.0198 33.4356 76.6662 53.7803 64.6892 77.1229ZM72.1173 118.153C60.5566 95.7078 52.3899 72.5539 49.0058 53.1136C45.2472 31.5231 47.7435 15.2369 54.0251 11.1498C60.7162 6.79594 75.5117 13.0035 91.1059 28.5664C103.521 40.9564 116.549 59.8645 127.882 81.868C139.788 104.983 148.057 127.297 151.253 145.448C153.255 156.811 153.541 167.085 152.215 175.116C151.024 182.333 148.628 187.144 145.667 189.071C139.364 193.173 125.885 187.842 111.349 173.783C97.9665 160.84 83.823 140.879 72.1173 118.153ZM64.7231 122.964C76.8835 146.573 91.6193 167.37 105.776 181.062C122.773 197.502 139.561 204.14 149.947 197.382C160.674 190.402 164.161 169.281 159.635 143.583C156.233 124.266 147.617 101.014 135.277 77.0567C123.516 54.2236 109.94 34.5201 96.7787 21.3855C78.7178 3.36091 60.6149 -4.23431 49.7445 2.83897C39.3207 9.62123 36.234 29.7585 40.6208 54.9575C44.198 75.5064 52.7116 99.6439 64.7231 122.964Z" fill="#34495E"/>
</svg>
