<svg width="201" height="200" viewBox="0 0 201 200" fill="none" xmlns="http://www.w3.org/2000/svg">
<path d="M12.4973 0.195709L28.5145 179.852L100.392 199.804L172.468 179.823L188.503 0.195709H12.4973ZM155.091 42.8305L154.089 54.0008L153.648 58.9543H153.575H100.5H100.423H69.3297L71.3434 81.5172H100.423H100.5H145.704H151.642L151.104 87.4336L145.927 145.444L145.595 149.164L100.5 161.662V161.666L100.399 161.695L55.2633 149.164L52.1762 114.568H62.3708H74.295L75.8637 132.141L100.403 138.768L100.423 138.762V138.76L125 132.128L127.555 103.551H100.5H100.423H51.1918L45.7766 42.8305L45.2489 36.9199H100.423H100.5H155.619L155.091 42.8305Z" fill="#34495E"/>
</svg>
