<svg width="201" height="200" viewBox="0 0 201 200" fill="none" xmlns="http://www.w3.org/2000/svg">
<g clip-path="url(#clip0_28_32)">
<path d="M170.5 0H30.5C13.9315 0 0.5 13.4315 0.5 30V170C0.5 186.569 13.9315 200 30.5 200H170.5C187.069 200 200.5 186.569 200.5 170V30C200.5 13.4315 187.069 0 170.5 0Z" fill="#34495E"/>
<path d="M127.062 144.531C130.969 151.172 136.438 155.859 145.422 155.859C153.234 155.859 158.312 151.953 158.312 146.484C158.312 140.234 153.234 137.891 144.641 133.984L139.953 132.031C126.281 126.172 117.297 119.141 117.297 103.906C117.297 89.8438 127.844 78.9062 144.641 78.9062C156.75 78.9062 165.344 83.2031 171.203 94.1406L156.75 103.516C153.625 97.6562 150.109 95.3125 144.641 95.3125C139.172 95.3125 135.656 98.8281 135.656 103.516C135.656 108.984 139.172 111.328 147.375 114.844L152.062 116.797C168.078 123.828 177.062 130.469 177.062 146.484C177.062 163.281 163.781 172.656 145.812 172.656C128.234 172.656 116.906 164.453 111.438 153.516L127.062 144.531ZM60.6562 146.094C63.7812 151.172 66.125 155.859 72.7656 155.859C79.0156 155.859 82.9219 153.516 82.9219 144.141V79.2969H101.672V143.359C101.672 162.891 90.3438 171.484 73.5469 171.484C58.3125 171.484 49.7188 163.672 45.4219 154.297L60.6562 146.094Z" fill="#E0E0E0"/>
</g>
<defs>
<clipPath id="clip0_28_32">
<rect width="200" height="200" fill="white" transform="translate(0.5)"/>
</clipPath>
</defs>
</svg>
