<svg width="201" height="200" viewBox="0 0 201 200" fill="none" xmlns="http://www.w3.org/2000/svg">
<g clip-path="url(#clip0_28_25)">
<path d="M95.3298 1.27707C98.2487 -0.425692 101.858 -0.425692 104.777 1.27707L182.456 46.5896C185.336 48.2696 187.107 51.3531 187.107 54.6875V145.312C187.107 148.648 185.336 151.73 182.456 153.41L104.777 198.723C101.858 200.426 98.2487 200.426 95.3298 198.723L75.9101 187.395C71.4378 184.786 69.9271 179.045 72.536 174.573C75.1449 170.101 80.8854 168.59 85.3577 171.199L100.054 179.771L168.357 139.927V60.0723L100.054 20.2285L31.75 60.0723V139.927L45.71 148.071C50.0122 149.451 55.3264 149.789 59.072 148.134C60.8096 147.366 62.3789 146.116 63.621 143.884C64.9283 141.534 66.125 137.622 66.125 131.25V65.625C66.125 60.4474 70.3224 56.25 75.5 56.25C80.6776 56.25 84.875 60.4474 84.875 65.625V131.25C84.875 139.878 83.263 147.145 80.0059 152.999C76.6839 158.97 71.9333 162.95 66.649 165.285C56.5703 169.738 45.4404 167.912 38.6249 165.464C38.0857 165.27 37.5656 165.027 37.0709 164.739L17.6512 153.41C14.771 151.73 13 148.648 13 145.312V54.6875C13 51.3531 14.771 48.2696 17.6512 46.5896L95.3298 1.27707ZM103.582 66.0404C108.542 60.1351 116.29 56.25 126.803 56.25C136.559 56.25 143.99 59.5945 149.019 64.9143C152.575 68.6771 152.409 74.6106 148.645 78.1673C144.882 81.724 138.949 81.5569 135.393 77.794C134.298 76.6359 132.003 75 126.803 75C121.273 75 118.994 76.8441 117.939 78.1003C116.577 79.7218 116.125 81.773 116.125 82.8125C116.125 83.852 116.577 85.9032 117.939 87.5247C118.994 88.7809 121.273 90.625 126.803 90.625C127.728 90.625 128.621 90.7591 129.466 91.009C137.21 92.1251 143.111 95.598 147.158 100.415C151.811 105.955 153.365 112.498 153.365 117.188C153.365 121.877 151.811 128.42 147.158 133.96C142.198 139.865 134.45 143.75 123.938 143.75C114.181 143.75 106.75 140.405 101.721 135.086C98.1644 131.322 98.3315 125.389 102.094 121.833C105.857 118.276 111.791 118.443 115.347 122.206C116.442 123.364 118.737 125 123.938 125C129.467 125 131.746 123.156 132.801 121.9C134.162 120.278 134.615 118.227 134.615 117.188C134.615 116.148 134.162 114.097 132.801 112.475C131.746 111.219 129.467 109.375 123.938 109.375C123.012 109.375 122.118 109.241 121.273 108.991C113.53 107.875 107.628 104.402 103.582 99.5846C98.9284 94.0446 97.375 87.5021 97.375 82.8125C97.375 78.1229 98.9284 71.5804 103.582 66.0404Z" fill="#34495E"/>
</g>
<defs>
<clipPath id="clip0_28_25">
<rect width="200" height="200" fill="white" transform="translate(0.5)"/>
</clipPath>
</defs>
</svg>
