<svg width="201" height="200" viewBox="0 0 201 200" fill="none" xmlns="http://www.w3.org/2000/svg">
<g clip-path="url(#clip0_28_27)">
<path fill-rule="evenodd" clip-rule="evenodd" d="M127.94 184.58C123.12 184.58 119.22 180.661 119.22 175.815C119.22 170.97 123.12 167.061 127.94 167.061C132.76 167.061 136.66 170.97 136.66 175.815C136.66 180.661 132.76 184.58 127.94 184.58ZM101.22 200C152 200 148.83 177.866 148.83 177.866L148.77 154.937H100.32V148.052H168.01C168.01 148.052 200.5 151.761 200.5 100.264C200.5 48.7659 172.15 50.5811 172.15 50.5811H155.22V74.4873C155.22 74.4873 156.13 102.983 127.32 102.983H79.2601C79.2601 102.983 52.2599 102.555 52.2599 129.224V173.311C52.2599 173.311 48.1599 200 101.22 200ZM73.0699 15.4199C77.8899 15.4199 81.7799 19.3394 81.7799 24.1846C81.7799 29.0298 77.8899 32.9395 73.0699 32.9395C68.2499 32.9395 64.3501 29.0298 64.3501 24.1846C64.3501 19.3394 68.2499 15.4199 73.0699 15.4199ZM99.7801 0C49.0101 0 52.18 22.1338 52.18 22.1338L52.2401 45.0635H100.69V51.9482H32.9899C32.9899 51.9482 0.5 48.2386 0.5 99.7363C0.5 151.234 28.86 149.419 28.86 149.419H45.7802V125.513C45.7802 125.513 44.87 97.0166 73.69 97.0166H121.74C121.74 97.0166 148.74 97.4451 148.74 70.7764V26.6895C148.74 26.6895 152.84 0 99.7801 0Z" fill="#34495E"/>
</g>
<defs>
<clipPath id="clip0_28_27">
<rect width="200" height="200" fill="white" transform="translate(0.5)"/>
</clipPath>
</defs>
</svg>
