<svg width="200" height="200" viewBox="0 0 200 200" fill="none" xmlns="http://www.w3.org/2000/svg">
<path fill-rule="evenodd" clip-rule="evenodd" d="M113.146 24.0374C105.886 16.7768 94.1137 16.7768 86.8536 24.0374L80.6105 30.2803L95.1846 44.8539C96.7203 44.4432 98.3341 44.2242 99.9999 44.2242C110.268 44.2242 118.592 52.5481 118.592 62.8161C118.592 64.4816 118.372 66.0959 117.962 67.6318L137.016 86.6853C138.552 86.2754 140.166 86.056 141.832 86.056C152.1 86.056 160.424 94.3796 160.424 104.648C160.424 114.916 152.1 123.24 141.832 123.24C131.563 123.24 123.24 114.916 123.24 104.648C123.24 102.982 123.459 101.368 123.869 99.8326L109.296 85.2584V130.375C114.853 133.59 118.592 139.598 118.592 146.48C118.592 156.748 110.268 165.072 99.9999 165.072C89.7316 165.072 81.408 156.748 81.408 146.48C81.408 139.598 85.1468 133.59 90.704 130.375V78.9208C85.1468 75.7061 81.408 69.6977 81.408 62.8161C81.408 61.1506 81.6274 59.5363 82.0373 58.0004L67.4641 43.4267L24.0374 86.8536C16.7768 94.1137 16.7768 105.886 24.0374 113.146L86.8536 175.963C94.1137 183.223 105.886 183.223 113.146 175.963L175.963 113.146C183.223 105.886 183.223 94.1137 175.963 86.8536L113.146 24.0374ZM73.707 10.8908C88.2284 -3.63032 111.771 -3.63028 126.293 10.8909L189.109 73.707C203.63 88.2284 203.63 111.771 189.109 126.293L126.293 189.109C111.771 203.63 88.2284 203.63 73.707 189.109L10.8908 126.293C-3.63032 111.771 -3.63028 88.2284 10.8909 73.707L73.707 10.8908Z" fill="#34495E"/>
</svg>
